<svg xmlns="http://www.w3.org/2000/svg" version="1.1" xmlns:xlink="http://www.w3.org/1999/xlink"
    xmlns:svgjs="http://svgjs.com/svgjs" width="1440" height="560" preserveAspectRatio="none"
    viewBox="0 0 1440 560">
    <g mask="url(&quot;#SvgjsMask1040&quot;)" fill="none">
        <path
            d="M308.788,224.258C328.66,225.7,346.54,212.41,356.282,195.03C365.808,178.036,365.337,157.455,355.736,140.503C345.989,123.293,328.563,111.515,308.788,111.168C288.415,110.811,267.631,120.395,258.896,138.804C250.968,155.512,262.577,172.935,271.901,188.905C281.104,204.668,290.583,222.937,308.788,224.258"
            fill="rgba(11, 218, 114, 0.1)" class="triangle-float1"></path>
        <path
            d="M155.79177882148048 31.78332055397138L36.619443801389-26.34091089081592-21.504787643398288 92.83142412927556 97.66754737669318 150.95565557406286z"
            fill="rgba(11, 218, 114, 0.1)" class="triangle-float3"></path>
        <path
            d="M848.1714860259664 446.21121356131977L764.333298790885 353.09947359744535 755.059746062092 530.0494007964012z"
            fill="rgba(11, 218, 114, 0.1)" class="triangle-float1"></path>
        <path
            d="M1029.261,371.086C1076.018,370.792,1108.175,329.7,1131.203,289.006C1153.779,249.111,1168.918,202.403,1147.71,161.764C1125.127,118.489,1078.072,94.119,1029.261,93.662C979.622,93.197,930.15,115.646,906.909,159.51C884.821,201.197,901.454,249.465,925.071,290.305C948.65,331.079,982.161,371.383,1029.261,371.086"
            fill="rgba(11, 218, 114, 0.1)" class="triangle-float3"></path>
        <path
            d="M124.495,425.311C150.134,425.024,172.652,409.827,185.629,387.713C198.78,365.302,203.297,336.888,189.189,315.066C175.94,294.573,148.898,292.996,124.495,293.151C100.472,293.304,74.477,295.852,61.212,315.881C46.766,337.693,47.846,366.461,60.943,389.109C74.024,411.729,98.367,425.604,124.495,425.311"
            fill="rgba(11, 218, 114, 0.1)" class="triangle-float2"></path>
        <path
            d="M1394.064038845208 435.6546972821489L1261.459605799712 298.07663881731673 1212.6235374166547 457.8122209645111z"
            fill="rgba(11, 218, 114, 0.1)" class="triangle-float1"></path>
    </g>
    <defs>
        <mask id="SvgjsMask1040">
            <rect width="1440" height="560" fill="#ffffff"></rect>
        </mask>
        <style>
            @keyframes float1 {
            0%{transform: translate(0, 0)}
            50%{transform: translate(-10px, 0)}
            100%{transform: translate(0, 0)}
            }

            .triangle-float1 {
            animation: float1 4s infinite;
            }

            @keyframes float2 {
            0%{transform: translate(0, 0)}
            50%{transform: translate(-5px, -5px)}
            100%{transform: translate(0, 0)}
            }

            .triangle-float2 {
            animation: float2 3s infinite;
            }

            @keyframes float3 {
            0%{transform: translate(0, 0)}
            50%{transform: translate(0, -10px)}
            100%{transform: translate(0, 0)}
            }

            .triangle-float3 {
            animation: float3 5s infinite;
            }
        </style>
    </defs>
</svg>